<svg width="323" height="322" viewBox="0 0 323 322" fill="none" xmlns="http://www.w3.org/2000/svg">
<path d="M295.402 171.95C312.555 173.354 325.61 188.513 321.02 205.064C316.429 221.616 297.425 227.909 281.993 220.303L205.742 182.718C201.883 180.816 200.38 176.159 201.527 172.021C202.674 167.884 206.364 164.663 210.651 165.014L295.402 171.95Z" fill="black"/>
<path d="M282.95 103.766C298.505 96.4231 317.403 103.039 321.721 119.666C326.039 136.293 312.737 151.228 295.564 152.34L210.71 157.834C206.417 158.112 202.782 154.829 201.703 150.672C200.623 146.515 202.203 141.885 206.092 140.049L282.95 103.766Z" fill="black"/>
<path d="M238.007 50.9198C247.797 36.7975 267.475 33.098 279.543 45.3457C291.613 57.5934 287.577 77.1673 273.265 86.7L202.546 133.801C198.968 136.183 194.175 135.154 191.158 132.092C188.141 129.03 187.189 124.231 189.637 120.7L238.007 50.9198Z" fill="black"/>
<path d="M172.618 27.5715C174.018 10.4539 189.204 -2.56982 205.789 2.01658C222.375 6.60308 228.688 25.5714 221.071 40.9702L183.436 117.057C181.532 120.907 176.867 122.406 172.72 121.26C168.573 120.113 165.345 116.43 165.695 112.151L172.618 27.5715Z" fill="black"/>
<path d="M104.301 39.9771C96.938 24.4509 103.561 5.59253 120.22 1.28883C136.879 -3.01487 151.848 10.2653 152.968 27.4044L158.501 112.09C158.78 116.375 155.492 120.002 151.328 121.077C147.162 122.153 142.523 120.575 140.682 116.694L104.301 39.9771Z" fill="black"/>
<path d="M51.3634 84.8128C37.2095 75.0382 33.4962 55.3982 45.7644 43.3576C58.0327 31.317 77.647 35.3505 87.2035 49.6375L134.421 120.23C136.81 123.802 135.78 128.585 132.713 131.595C129.645 134.605 124.837 135.553 121.299 133.109L51.3634 84.8128Z" fill="black"/>
<path d="M27.9902 150.064C10.8379 148.661 -2.21695 133.501 2.37315 116.951C6.96335 100.399 25.9675 94.105 41.3997 101.712L117.651 139.297C121.509 141.199 123.013 145.855 121.866 149.993C120.718 154.131 117.03 157.352 112.742 157.001L27.9902 150.064Z" fill="black"/>
<path d="M40.4433 218.248C24.8885 225.591 5.99024 218.976 1.67244 202.348C-2.64536 185.721 10.6564 170.787 27.8294 169.675L112.683 164.181C116.976 163.903 120.612 167.186 121.691 171.342C122.77 175.499 121.19 180.13 117.302 181.965L40.4433 218.248Z" fill="black"/>
<path d="M85.3852 271.095C75.5957 285.217 55.9177 288.916 43.8489 276.669C31.7802 264.421 35.8153 244.847 50.1277 235.315L120.847 188.214C124.425 185.831 129.217 186.861 132.234 189.923C135.252 192.985 136.203 197.784 133.756 201.315L85.3852 271.095Z" fill="black"/>
<path d="M150.776 294.443C149.375 311.561 134.19 324.584 117.604 319.998C101.018 315.412 94.705 296.443 102.322 281.045L139.957 204.958C141.862 201.108 146.527 199.609 150.673 200.755C154.82 201.901 158.048 205.584 157.698 209.863L150.776 294.443Z" fill="black"/>
<path d="M219.092 282.037C226.455 297.564 219.832 316.422 203.173 320.726C186.514 325.029 171.545 311.749 170.425 294.61L164.892 209.924C164.612 205.639 167.901 202.013 172.065 200.937C176.23 199.861 180.87 201.439 182.711 205.321L219.092 282.037Z" fill="black"/>
<path d="M272.029 237.202C286.183 246.977 289.897 266.616 277.629 278.657C265.36 290.697 245.746 286.664 236.189 272.377L188.971 201.784C186.582 198.212 187.613 193.43 190.679 190.42C193.747 187.409 198.555 186.461 202.094 188.905L272.029 237.202Z" fill="black"/>
</svg>
